<svg width="30" height="34" viewBox="0 0 30 34" fill="none" xmlns="http://www.w3.org/2000/svg">
<path d="M4.158 3.312C4.14867 3.49867 4.13933 3.64333 4.13 3.746C4.13 3.83933 4.12533 3.928 4.116 4.012C4.116 4.08667 4.11133 4.17067 4.102 4.264C4.102 4.348 4.102 4.474 4.102 4.642C4.102 4.80067 4.102 5.01533 4.102 5.286C4.102 5.55667 4.10667 5.91133 4.116 6.35C4.09733 6.266 3.99467 6.19133 3.808 6.126C3.62133 6.06067 3.39267 6.01867 3.122 6C2.85133 5.972 2.562 5.972 2.254 6C1.95533 6.01867 1.68 6.07467 1.428 6.168C1.22267 6.24267 1.04533 6.37333 0.896 6.56C0.756 6.73733 0.639333 6.95667 0.546 7.218C0.462 7.47 0.396667 7.75 0.35 8.058C0.312667 8.366 0.294 8.68333 0.294 9.01C0.303333 9.47667 0.331333 9.93867 0.378 10.396C0.434 10.8533 0.536667 11.2687 0.686 11.642C0.844667 12.006 1.078 12.3093 1.386 12.552C1.694 12.7853 2.114 12.9207 2.646 12.958C2.90733 12.9953 3.15467 12.9767 3.388 12.902C3.62133 12.818 3.808 12.636 3.948 12.356C3.976 12.3 3.99933 12.286 4.018 12.314C4.046 12.3327 4.06933 12.3653 4.088 12.412C4.088 12.5147 4.088 12.594 4.088 12.65C4.09733 12.706 4.102 12.7807 4.102 12.874C4.102 12.9207 4.10667 12.9533 4.116 12.972C4.396 13.0093 4.70867 13.0187 5.054 13C5.39933 12.9907 5.71667 12.986 6.006 12.986C6.04333 11.642 6.03867 10.2093 5.992 8.688C5.94533 7.16667 5.922 5.62667 5.922 4.068V3.144C5.77267 3.116 5.59533 3.102 5.39 3.102C5.18467 3.09267 4.98867 3.09267 4.802 3.102C4.62467 3.102 4.47067 3.11133 4.34 3.13C4.21867 3.13933 4.158 3.14867 4.158 3.158V3.312ZM1.988 8.59C2.03467 8.26333 2.17 8.016 2.394 7.848C2.62733 7.68 2.93533 7.596 3.318 7.596C3.514 7.596 3.668 7.61467 3.78 7.652C3.90133 7.68 3.99 7.75 4.046 7.862C4.102 7.974 4.13467 8.13733 4.144 8.352C4.16267 8.55733 4.172 8.842 4.172 9.206C4.172 9.50467 4.16267 9.78 4.144 10.032C4.13467 10.2747 4.09267 10.4847 4.018 10.662C3.95267 10.8393 3.85 10.9793 3.71 11.082C3.57933 11.1847 3.39733 11.236 3.164 11.236C2.968 11.236 2.79067 11.1847 2.632 11.082C2.47333 10.9793 2.338 10.844 2.226 10.676C2.114 10.4987 2.03 10.3027 1.974 10.088C1.918 9.864 1.89 9.63533 1.89 9.402C1.89 9.27133 1.89467 9.136 1.904 8.996C1.91333 8.856 1.94133 8.72067 1.988 8.59ZM8.37047 9.682C8.37047 9.58867 8.37047 9.5 8.37047 9.416C8.37047 9.32267 8.3798 9.22933 8.39847 9.136C8.4358 8.92133 8.50114 8.72067 8.59447 8.534C8.69714 8.338 8.81847 8.16067 8.95847 8.002C9.07047 7.90867 9.19647 7.84333 9.33647 7.806C9.4858 7.75933 9.63514 7.74533 9.78447 7.764C9.9338 7.78267 10.0691 7.834 10.1905 7.918C10.3211 7.99267 10.4145 8.1 10.4705 8.24C10.5638 8.59467 10.6151 8.968 10.6245 9.36C10.6431 9.74267 10.6525 10.1207 10.6525 10.494C10.6431 10.578 10.6291 10.6667 10.6105 10.76C10.6011 10.844 10.5825 10.928 10.5545 11.012C10.5265 11.0867 10.4891 11.1567 10.4425 11.222C10.3958 11.278 10.3305 11.32 10.2465 11.348C10.0038 11.4227 9.74247 11.4413 9.46247 11.404C9.18247 11.3573 8.95847 11.2313 8.79047 11.026C8.51047 10.69 8.37047 10.284 8.37047 9.808V9.682ZM10.7925 15.8C10.9045 15.7907 11.0258 15.772 11.1565 15.744C11.2871 15.716 11.4178 15.6647 11.5485 15.59C11.6791 15.5247 11.8098 15.4313 11.9405 15.31C12.0805 15.1887 12.2158 15.0253 12.3465 14.82C12.4398 14.6707 12.4818 14.484 12.4725 14.26C12.4631 14.0453 12.4631 13.826 12.4725 13.602C12.5285 12.258 12.5518 10.9513 12.5425 9.682C12.5425 8.40333 12.5238 7.18067 12.4865 6.014C12.1691 6.014 11.8518 6.00933 11.5345 6C11.2171 5.98133 10.9045 5.99067 10.5965 6.028C10.5685 6.07467 10.5545 6.14 10.5545 6.224C10.5638 6.29867 10.5685 6.378 10.5685 6.462C10.5778 6.53667 10.5778 6.602 10.5685 6.658C10.5685 6.70467 10.5498 6.71867 10.5125 6.7C10.4005 6.43867 10.2138 6.26133 9.95247 6.168C9.70047 6.06533 9.42514 6.02333 9.12647 6.042C8.52914 6.07933 8.0718 6.252 7.75447 6.56C7.43714 6.85867 7.2038 7.232 7.05447 7.68C6.91447 8.11867 6.83514 8.59 6.81647 9.094C6.7978 9.598 6.78847 10.0693 6.78847 10.508C6.80714 10.7973 6.84447 11.082 6.90047 11.362C6.95647 11.6327 7.0498 11.894 7.18047 12.146C7.26447 12.3233 7.3718 12.468 7.50247 12.58C7.63314 12.692 7.7778 12.7807 7.93647 12.846C8.10447 12.9113 8.27714 12.958 8.45447 12.986C8.64114 13.014 8.82314 13.028 9.00047 13.028C9.13114 13.0187 9.27114 13.014 9.42047 13.014C9.5698 13.014 9.71447 13.0047 9.85447 12.986C10.0038 12.9673 10.1391 12.9347 10.2605 12.888C10.3911 12.8413 10.5031 12.7667 10.5965 12.664C10.5778 12.832 10.5778 12.9953 10.5965 13.154C10.6058 13.2287 10.6058 13.3127 10.5965 13.406C10.5871 13.5087 10.5778 13.6067 10.5685 13.7C10.5125 13.9613 10.3911 14.148 10.2045 14.26C10.0271 14.372 9.84047 14.4187 9.64447 14.4C9.4578 14.3813 9.28514 14.2973 9.12647 14.148C8.97714 14.008 8.90247 13.8167 8.90247 13.574C8.79047 13.5553 8.65047 13.5367 8.48247 13.518C8.3238 13.5087 8.1558 13.4993 7.97847 13.49C7.81047 13.49 7.64714 13.4947 7.48847 13.504C7.3298 13.5227 7.2038 13.5507 7.11047 13.588C7.10114 13.6627 7.09647 13.7513 7.09647 13.854C7.1058 13.9567 7.1198 14.064 7.13847 14.176C7.16647 14.288 7.19447 14.3953 7.22247 14.498C7.2598 14.61 7.29714 14.6987 7.33447 14.764C7.54914 15.0813 7.82914 15.3333 8.17447 15.52C8.5198 15.7067 8.9118 15.8 9.35047 15.8C9.73314 15.8 10.0458 15.8047 10.2885 15.814C10.5311 15.8233 10.6991 15.8187 10.7925 15.8ZM15.2276 5.958C14.929 5.96733 14.6723 5.96733 14.4576 5.958C14.243 5.94867 14.075 5.93933 13.9536 5.93C13.907 5.93 13.837 5.92533 13.7436 5.916C13.6596 5.90667 13.599 5.90667 13.5616 5.916V5.93C13.5056 6.48067 13.4776 7.05 13.4776 7.638C13.4776 8.21667 13.487 8.80467 13.5056 9.402C13.5243 9.99933 13.5336 10.6013 13.5336 11.208C13.543 11.8147 13.5243 12.412 13.4776 13C13.543 12.9813 13.6736 12.9767 13.8696 12.986C14.0656 12.9953 14.271 13 14.4856 13C14.7096 13.0093 14.915 13.0093 15.1016 13C15.2883 13 15.405 12.972 15.4516 12.916C15.3863 11.7867 15.3676 10.634 15.3956 9.458C15.433 8.282 15.4563 7.12933 15.4656 6V5.958H15.2276ZM13.5056 2.906C13.4963 3.33533 13.501 3.69933 13.5196 3.998C13.5476 4.28733 13.5616 4.56733 13.5616 4.838C13.739 4.82867 13.9303 4.83333 14.1356 4.852C14.341 4.86133 14.5323 4.87067 14.7096 4.88C14.8963 4.88 15.055 4.87067 15.1856 4.852C15.3256 4.83333 15.4143 4.796 15.4516 4.74C15.4516 4.6 15.447 4.44133 15.4376 4.264C15.4376 4.07733 15.433 3.9 15.4236 3.732C15.4236 3.55467 15.419 3.396 15.4096 3.256C15.4096 3.10667 15.4096 3.004 15.4096 2.948L13.5056 2.906Z" fill="#E0E0E0"/>
<path d="M3.024 25.016C3.31333 25.0253 3.61667 25.0393 3.934 25.058C4.26067 25.0767 4.662 25.1 5.138 25.128C5.15667 24.9507 5.17067 24.8107 5.18 24.708C5.18933 24.6053 5.194 24.5213 5.194 24.456C5.20333 24.3907 5.208 24.33 5.208 24.274C5.208 24.2087 5.208 24.1247 5.208 24.022C5.21733 23.8913 5.21733 23.7793 5.208 23.686C5.19867 23.5833 5.20333 23.4807 5.222 23.378H3.08C3.03333 23.1447 3.03333 22.9393 3.08 22.762C3.136 22.5753 3.27133 22.4633 3.486 22.426C3.61667 22.4073 3.76133 22.3887 3.92 22.37C4.07867 22.342 4.23733 22.3187 4.396 22.3C4.55467 22.2813 4.704 22.2673 4.844 22.258C4.99333 22.2487 5.124 22.2487 5.236 22.258C5.25467 22.1273 5.27333 21.9827 5.292 21.824C5.31067 21.6653 5.32467 21.502 5.334 21.334C5.34333 21.166 5.33867 20.998 5.32 20.83C5.31067 20.662 5.28267 20.508 5.236 20.368C4.79733 20.3493 4.34467 20.3587 3.878 20.396C3.42067 20.424 2.996 20.5033 2.604 20.634C2.28667 20.7367 2.03 20.8953 1.834 21.11C1.638 21.3153 1.484 21.5487 1.372 21.81C1.26933 22.062 1.204 22.3233 1.176 22.594C1.148 22.8647 1.14333 23.1167 1.162 23.35C1.01267 23.3407 0.854 23.336 0.686 23.336C0.527333 23.336 0.35 23.336 0.154 23.336L0.196 25.044C0.382667 25.0347 0.555333 25.03 0.714 25.03C0.882 25.03 1.04067 25.03 1.19 25.03C1.19 25.17 1.18533 25.3707 1.176 25.632C1.176 25.8933 1.17133 26.192 1.162 26.528C1.162 26.8547 1.162 27.1953 1.162 27.55C1.162 27.9047 1.162 28.2453 1.162 28.572C1.17133 28.8893 1.176 29.1787 1.176 29.44C1.18533 29.692 1.19933 29.874 1.218 29.986C1.33933 30.0047 1.47 30.0093 1.61 30C1.75933 29.9907 1.91333 29.9813 2.072 29.972C2.23067 29.9533 2.38933 29.9393 2.548 29.93C2.70667 29.9207 2.86533 29.9253 3.024 29.944V28.068V25.016ZM5.93469 23.616C5.90669 23.7187 5.86469 23.8587 5.80869 24.036C5.75269 24.204 5.72002 24.3393 5.71069 24.442C5.68269 24.6193 5.66402 24.792 5.65469 24.96C5.64535 25.1187 5.64069 25.282 5.64069 25.45C5.66869 25.758 5.67335 26.0987 5.65469 26.472C5.64535 26.8453 5.65002 27.2187 5.66869 27.592C5.68735 27.956 5.74335 28.306 5.83669 28.642C5.93002 28.978 6.10269 29.258 6.35469 29.482C6.68135 29.8087 7.08269 30.014 7.55869 30.098C7.82002 30.098 8.10935 30.1073 8.42669 30.126C8.74402 30.154 9.05202 30.154 9.35069 30.126C9.64935 30.1073 9.92469 30.0513 10.1767 29.958C10.438 29.8647 10.648 29.706 10.8067 29.482C10.9 29.3887 10.97 29.216 11.0167 28.964C11.0727 28.712 11.1147 28.4273 11.1427 28.11C11.18 27.7927 11.2034 27.4613 11.2127 27.116C11.2314 26.7707 11.2454 26.4627 11.2547 26.192C11.2454 25.884 11.236 25.5853 11.2267 25.296C11.2174 24.9973 11.194 24.7267 11.1567 24.484C11.1194 24.232 11.0634 24.0127 10.9887 23.826C10.914 23.6393 10.8114 23.504 10.6807 23.42C10.4847 23.2333 10.2514 23.0933 9.98069 23C9.71002 22.8973 9.42535 22.8367 9.12669 22.818C8.93069 22.7993 8.74402 22.7993 8.56669 22.818C8.39869 22.8273 8.22135 22.8227 8.03469 22.804C7.81069 22.804 7.58669 22.818 7.36269 22.846C7.14802 22.874 6.94269 22.9253 6.74669 23C6.56002 23.0653 6.39202 23.1493 6.24269 23.252C6.10269 23.3547 6.00002 23.476 5.93469 23.616ZM7.68469 25.268C7.80602 25.1187 7.96469 25.016 8.16069 24.96C8.52469 24.876 8.81869 24.9087 9.04269 25.058C9.26669 25.2073 9.40202 25.4453 9.44869 25.772C9.50469 26.0427 9.51869 26.332 9.49069 26.64C9.47202 26.9387 9.44402 27.2373 9.40669 27.536C9.35069 27.7693 9.24335 27.9233 9.08469 27.998C8.96335 28.0633 8.80935 28.11 8.62269 28.138C8.43602 28.1567 8.25402 28.1473 8.07669 28.11C7.90869 28.0633 7.76402 27.984 7.64269 27.872C7.52135 27.7507 7.46535 27.5827 7.47469 27.368C7.49335 27.0413 7.50269 26.7333 7.50269 26.444C7.50269 26.1453 7.52135 25.8467 7.55869 25.548C7.58669 25.3987 7.62869 25.3053 7.68469 25.268ZM12.1261 19.822C12.0421 20.6713 12.0001 21.5207 12.0001 22.37C12.0094 23.2193 12.0281 24.0687 12.0561 24.918C12.0841 25.7673 12.1027 26.6167 12.1121 27.466C12.1307 28.3153 12.1074 29.16 12.0421 30C12.1074 29.9813 12.2381 29.9767 12.4341 29.986C12.6301 29.9953 12.8354 30 13.0501 30C13.2741 30.0093 13.4794 30.0093 13.6661 30C13.8527 30 13.9694 29.972 14.0161 29.916C13.9974 29.5427 13.9834 29.09 13.9741 28.558C13.9647 28.0167 13.9601 27.438 13.9601 26.822C13.9601 26.206 13.9601 25.5667 13.9601 24.904C13.9694 24.2413 13.9787 23.602 13.9881 22.986C13.9974 22.37 14.0067 21.7913 14.0161 21.25C14.0254 20.7087 14.0301 20.2467 14.0301 19.864L12.1261 19.822ZM16.6768 22.958C16.3782 22.9673 16.1215 22.9673 15.9068 22.958C15.6922 22.9487 15.5242 22.9393 15.4028 22.93C15.3562 22.93 15.2862 22.9253 15.1928 22.916C15.1088 22.9067 15.0482 22.9067 15.0108 22.916V22.93C14.9548 23.4807 14.9268 24.05 14.9268 24.638C14.9268 25.2167 14.9362 25.8047 14.9548 26.402C14.9735 26.9993 14.9828 27.6013 14.9828 28.208C14.9922 28.8147 14.9735 29.412 14.9268 30C14.9922 29.9813 15.1228 29.9767 15.3188 29.986C15.5148 29.9953 15.7202 30 15.9348 30C16.1588 30.0093 16.3642 30.0093 16.5508 30C16.7375 30 16.8542 29.972 16.9008 29.916C16.8355 28.7867 16.8168 27.634 16.8448 26.458C16.8822 25.282 16.9055 24.1293 16.9148 23V22.958H16.6768ZM14.9548 19.906C14.9455 20.3353 14.9502 20.6993 14.9688 20.998C14.9968 21.2873 15.0108 21.5673 15.0108 21.838C15.1882 21.8287 15.3795 21.8333 15.5848 21.852C15.7902 21.8613 15.9815 21.8707 16.1588 21.88C16.3455 21.88 16.5042 21.8707 16.6348 21.852C16.7748 21.8333 16.8635 21.796 16.9008 21.74C16.9008 21.6 16.8962 21.4413 16.8868 21.264C16.8868 21.0773 16.8822 20.9 16.8728 20.732C16.8728 20.5547 16.8682 20.396 16.8588 20.256C16.8588 20.1067 16.8588 20.004 16.8588 19.948L14.9548 19.906ZM17.9933 23.616C17.9653 23.7187 17.9233 23.8587 17.8673 24.036C17.8113 24.204 17.7786 24.3393 17.7693 24.442C17.7413 24.6193 17.7226 24.792 17.7133 24.96C17.7039 25.1187 17.6993 25.282 17.6993 25.45C17.7273 25.758 17.7319 26.0987 17.7133 26.472C17.7039 26.8453 17.7086 27.2187 17.7273 27.592C17.7459 27.956 17.8019 28.306 17.8953 28.642C17.9886 28.978 18.1613 29.258 18.4133 29.482C18.7399 29.8087 19.1413 30.014 19.6173 30.098C19.8786 30.098 20.1679 30.1073 20.4853 30.126C20.8026 30.154 21.1106 30.154 21.4093 30.126C21.7079 30.1073 21.9833 30.0513 22.2353 29.958C22.4966 29.8647 22.7066 29.706 22.8653 29.482C22.9586 29.3887 23.0286 29.216 23.0753 28.964C23.1313 28.712 23.1733 28.4273 23.2013 28.11C23.2386 27.7927 23.2619 27.4613 23.2713 27.116C23.2899 26.7707 23.3039 26.4627 23.3133 26.192C23.3039 25.884 23.2946 25.5853 23.2853 25.296C23.2759 24.9973 23.2526 24.7267 23.2153 24.484C23.1779 24.232 23.1219 24.0127 23.0473 23.826C22.9726 23.6393 22.8699 23.504 22.7393 23.42C22.5433 23.2333 22.3099 23.0933 22.0393 23C21.7686 22.8973 21.4839 22.8367 21.1853 22.818C20.9893 22.7993 20.8026 22.7993 20.6253 22.818C20.4573 22.8273 20.2799 22.8227 20.0933 22.804C19.8693 22.804 19.6453 22.818 19.4213 22.846C19.2066 22.874 19.0013 22.9253 18.8053 23C18.6186 23.0653 18.4506 23.1493 18.3013 23.252C18.1613 23.3547 18.0586 23.476 17.9933 23.616ZM19.7433 25.268C19.8646 25.1187 20.0233 25.016 20.2193 24.96C20.5833 24.876 20.8773 24.9087 21.1013 25.058C21.3253 25.2073 21.4606 25.4453 21.5073 25.772C21.5633 26.0427 21.5773 26.332 21.5493 26.64C21.5306 26.9387 21.5026 27.2373 21.4653 27.536C21.4093 27.7693 21.3019 27.9233 21.1433 27.998C21.0219 28.0633 20.8679 28.11 20.6813 28.138C20.4946 28.1567 20.3126 28.1473 20.1353 28.11C19.9673 28.0633 19.8226 27.984 19.7013 27.872C19.5799 27.7507 19.5239 27.5827 19.5333 27.368C19.5519 27.0413 19.5613 26.7333 19.5613 26.444C19.5613 26.1453 19.5799 25.8467 19.6173 25.548C19.6453 25.3987 19.6873 25.3053 19.7433 25.268ZM29.7427 25.156C29.7427 24.652 29.6493 24.1993 29.4627 23.798C29.276 23.3873 28.9633 23.0887 28.5247 22.902C28.282 22.846 28.016 22.804 27.7267 22.776C27.4373 22.7387 27.148 22.72 26.8587 22.72C26.5693 22.72 26.294 22.734 26.0327 22.762C25.7807 22.79 25.566 22.8273 25.3887 22.874C24.9313 22.9953 24.5767 23.2287 24.3247 23.574C24.082 23.9193 23.9513 24.2973 23.9327 24.708C23.9233 25.1093 24.0353 25.5013 24.2687 25.884C24.5113 26.2573 24.894 26.5327 25.4167 26.71C25.678 26.822 25.944 26.9013 26.2147 26.948C26.4853 26.9947 26.728 27.0507 26.9427 27.116C27.1573 27.172 27.33 27.256 27.4607 27.368C27.5913 27.48 27.6427 27.648 27.6147 27.872C27.624 28.1427 27.54 28.3293 27.3627 28.432C27.1853 28.5347 26.9893 28.5767 26.7747 28.558C26.56 28.53 26.3547 28.4507 26.1587 28.32C25.972 28.18 25.874 28.0027 25.8647 27.788C25.5753 27.788 25.2347 27.7833 24.8427 27.774C24.4507 27.7553 24.1007 27.7647 23.7927 27.802V27.83V27.872C23.7927 28.2453 23.8673 28.5813 24.0167 28.88C24.1753 29.1787 24.39 29.4307 24.6607 29.636C24.9407 29.8413 25.272 29.9953 25.6547 30.098C26.0373 30.2007 26.4667 30.2427 26.9427 30.224C27.484 30.2333 27.9833 30.14 28.4407 29.944C28.898 29.748 29.234 29.4213 29.4487 28.964C29.626 28.4507 29.6913 28.0213 29.6447 27.676C29.598 27.3213 29.472 26.976 29.2667 26.64C29.052 26.36 28.716 26.1593 28.2587 26.038C27.8013 25.9073 27.3113 25.8047 26.7887 25.73C26.574 25.6553 26.4107 25.5433 26.2987 25.394C26.1867 25.2447 26.1307 25.0953 26.1307 24.946C26.1307 24.7967 26.182 24.6613 26.2847 24.54C26.3967 24.4093 26.56 24.3253 26.7747 24.288C26.896 24.2787 27.0173 24.2973 27.1387 24.344C27.2693 24.3813 27.3813 24.442 27.4747 24.526C27.5773 24.61 27.652 24.708 27.6987 24.82C27.7547 24.932 27.7687 25.044 27.7407 25.156C28.058 25.2213 28.394 25.2493 28.7487 25.24C29.1127 25.2307 29.444 25.2027 29.7427 25.156Z" fill="#FB86E8"/>
</svg>
