<svg width="63" height="21" viewBox="0 0 63 21" fill="none" xmlns="http://www.w3.org/2000/svg">
<path d="M5.346 4.544C5.334 4.784 5.322 4.97 5.31 5.102C5.31 5.222 5.304 5.336 5.292 5.444C5.292 5.54 5.286 5.648 5.274 5.768C5.274 5.876 5.274 6.038 5.274 6.254C5.274 6.458 5.274 6.734 5.274 7.082C5.274 7.43 5.28 7.886 5.292 8.45C5.268 8.342 5.136 8.246 4.896 8.162C4.656 8.078 4.362 8.024 4.014 8C3.666 7.964 3.294 7.964 2.898 8C2.514 8.024 2.16 8.096 1.836 8.216C1.572 8.312 1.344 8.48 1.152 8.72C0.972 8.948 0.822 9.23 0.702 9.566C0.594 9.89 0.51 10.25 0.45 10.646C0.402 11.042 0.378 11.45 0.378 11.87C0.39 12.47 0.426 13.064 0.486 13.652C0.558 14.24 0.69 14.774 0.882 15.254C1.086 15.722 1.386 16.112 1.782 16.424C2.178 16.724 2.718 16.898 3.402 16.946C3.738 16.994 4.056 16.97 4.356 16.874C4.656 16.766 4.896 16.532 5.076 16.172C5.112 16.1 5.142 16.082 5.166 16.118C5.202 16.142 5.232 16.184 5.256 16.244C5.256 16.376 5.256 16.478 5.256 16.55C5.268 16.622 5.274 16.718 5.274 16.838C5.274 16.898 5.28 16.94 5.292 16.964C5.652 17.012 6.054 17.024 6.498 17C6.942 16.988 7.35 16.982 7.722 16.982C7.77 15.254 7.764 13.412 7.704 11.456C7.644 9.5 7.614 7.52 7.614 5.516V4.328C7.422 4.292 7.194 4.274 6.93 4.274C6.666 4.262 6.414 4.262 6.174 4.274C5.946 4.274 5.748 4.286 5.58 4.31C5.424 4.322 5.346 4.334 5.346 4.346V4.544ZM2.556 11.33C2.616 10.91 2.79 10.592 3.078 10.376C3.378 10.16 3.774 10.052 4.266 10.052C4.518 10.052 4.716 10.076 4.86 10.124C5.016 10.16 5.13 10.25 5.202 10.394C5.274 10.538 5.316 10.748 5.328 11.024C5.352 11.288 5.364 11.654 5.364 12.122C5.364 12.506 5.352 12.86 5.328 13.184C5.316 13.496 5.262 13.766 5.166 13.994C5.082 14.222 4.95 14.402 4.77 14.534C4.602 14.666 4.368 14.732 4.068 14.732C3.816 14.732 3.588 14.666 3.384 14.534C3.18 14.402 3.006 14.228 2.862 14.012C2.718 13.784 2.61 13.532 2.538 13.256C2.466 12.968 2.43 12.674 2.43 12.374C2.43 12.206 2.436 12.032 2.448 11.852C2.46 11.672 2.496 11.498 2.556 11.33ZM10.762 12.734C10.762 12.614 10.762 12.5 10.762 12.392C10.762 12.272 10.774 12.152 10.798 12.032C10.846 11.756 10.93 11.498 11.05 11.258C11.182 11.006 11.338 10.778 11.518 10.574C11.662 10.454 11.824 10.37 12.004 10.322C12.196 10.262 12.388 10.244 12.58 10.268C12.772 10.292 12.946 10.358 13.102 10.466C13.27 10.562 13.39 10.7 13.462 10.88C13.582 11.336 13.648 11.816 13.66 12.32C13.684 12.812 13.696 13.298 13.696 13.778C13.684 13.886 13.666 14 13.642 14.12C13.63 14.228 13.606 14.336 13.57 14.444C13.534 14.54 13.486 14.63 13.426 14.714C13.366 14.786 13.282 14.84 13.174 14.876C12.862 14.972 12.526 14.996 12.166 14.948C11.806 14.888 11.518 14.726 11.302 14.462C10.942 14.03 10.762 13.508 10.762 12.896V12.734ZM13.876 20.6C14.02 20.588 14.176 20.564 14.344 20.528C14.512 20.492 14.68 20.426 14.848 20.33C15.016 20.246 15.184 20.126 15.352 19.97C15.532 19.814 15.706 19.604 15.874 19.34C15.994 19.148 16.048 18.908 16.036 18.62C16.024 18.344 16.024 18.062 16.036 17.774C16.108 16.046 16.138 14.366 16.126 12.734C16.126 11.09 16.102 9.518 16.054 8.018C15.646 8.018 15.238 8.012 14.83 8C14.422 7.976 14.02 7.988 13.624 8.036C13.588 8.096 13.57 8.18 13.57 8.288C13.582 8.384 13.588 8.486 13.588 8.594C13.6 8.69 13.6 8.774 13.588 8.846C13.588 8.906 13.564 8.924 13.516 8.9C13.372 8.564 13.132 8.336 12.796 8.216C12.472 8.084 12.118 8.03 11.734 8.054C10.966 8.102 10.378 8.324 9.97003 8.72C9.56203 9.104 9.26203 9.584 9.07003 10.16C8.89003 10.724 8.78803 11.33 8.76403 11.978C8.74003 12.626 8.72803 13.232 8.72803 13.796C8.75203 14.168 8.80003 14.534 8.87203 14.894C8.94403 15.242 9.06403 15.578 9.23203 15.902C9.34003 16.13 9.47803 16.316 9.64603 16.46C9.81403 16.604 10 16.718 10.204 16.802C10.42 16.886 10.642 16.946 10.87 16.982C11.11 17.018 11.344 17.036 11.572 17.036C11.74 17.024 11.92 17.018 12.112 17.018C12.304 17.018 12.49 17.006 12.67 16.982C12.862 16.958 13.036 16.916 13.192 16.856C13.36 16.796 13.504 16.7 13.624 16.568C13.6 16.784 13.6 16.994 13.624 17.198C13.636 17.294 13.636 17.402 13.624 17.522C13.612 17.654 13.6 17.78 13.588 17.9C13.516 18.236 13.36 18.476 13.12 18.62C12.892 18.764 12.652 18.824 12.4 18.8C12.16 18.776 11.938 18.668 11.734 18.476C11.542 18.296 11.446 18.05 11.446 17.738C11.302 17.714 11.122 17.69 10.906 17.666C10.702 17.654 10.486 17.642 10.258 17.63C10.042 17.63 9.83203 17.636 9.62803 17.648C9.42403 17.672 9.26203 17.708 9.14203 17.756C9.13003 17.852 9.12403 17.966 9.12403 18.098C9.13603 18.23 9.15403 18.368 9.17803 18.512C9.21403 18.656 9.25003 18.794 9.28603 18.926C9.33403 19.07 9.38203 19.184 9.43003 19.268C9.70603 19.676 10.066 20 10.51 20.24C10.954 20.48 11.458 20.6 12.022 20.6C12.514 20.6 12.916 20.606 13.228 20.618C13.54 20.63 13.756 20.624 13.876 20.6ZM19.5784 7.946C19.1944 7.958 18.8644 7.958 18.5884 7.946C18.3124 7.934 18.0964 7.922 17.9404 7.91C17.8804 7.91 17.7904 7.904 17.6704 7.892C17.5624 7.88 17.4844 7.88 17.4364 7.892V7.91C17.3644 8.618 17.3284 9.35 17.3284 10.106C17.3284 10.85 17.3404 11.606 17.3644 12.374C17.3884 13.142 17.4004 13.916 17.4004 14.696C17.4124 15.476 17.3884 16.244 17.3284 17C17.4124 16.976 17.5804 16.97 17.8324 16.982C18.0844 16.994 18.3484 17 18.6244 17C18.9124 17.012 19.1764 17.012 19.4164 17C19.6564 17 19.8064 16.964 19.8664 16.892C19.7824 15.44 19.7584 13.958 19.7944 12.446C19.8424 10.934 19.8724 9.452 19.8844 8V7.946H19.5784ZM17.3644 4.022C17.3524 4.574 17.3584 5.042 17.3824 5.426C17.4184 5.798 17.4364 6.158 17.4364 6.506C17.6644 6.494 17.9104 6.5 18.1744 6.524C18.4384 6.536 18.6844 6.548 18.9124 6.56C19.1524 6.56 19.3564 6.548 19.5244 6.524C19.7044 6.5 19.8184 6.452 19.8664 6.38C19.8664 6.2 19.8604 5.996 19.8484 5.768C19.8484 5.528 19.8424 5.3 19.8304 5.084C19.8304 4.856 19.8244 4.652 19.8124 4.472C19.8124 4.28 19.8124 4.148 19.8124 4.076L17.3644 4.022Z" fill="#E0E0E0"/>
<path d="M27.888 10.592C28.26 10.604 28.65 10.622 29.058 10.646C29.478 10.67 29.994 10.7 30.606 10.736C30.63 10.508 30.648 10.328 30.66 10.196C30.672 10.064 30.678 9.956 30.678 9.872C30.69 9.788 30.696 9.71 30.696 9.638C30.696 9.554 30.696 9.446 30.696 9.314C30.708 9.146 30.708 9.002 30.696 8.882C30.684 8.75 30.69 8.618 30.714 8.486H27.96C27.9 8.186 27.9 7.922 27.96 7.694C28.032 7.454 28.206 7.31 28.482 7.262C28.65 7.238 28.836 7.214 29.04 7.19C29.244 7.154 29.448 7.124 29.652 7.1C29.856 7.076 30.048 7.058 30.228 7.046C30.42 7.034 30.588 7.034 30.732 7.046C30.756 6.878 30.78 6.692 30.804 6.488C30.828 6.284 30.846 6.074 30.858 5.858C30.87 5.642 30.864 5.426 30.84 5.21C30.828 4.994 30.792 4.796 30.732 4.616C30.168 4.592 29.586 4.604 28.986 4.652C28.398 4.688 27.852 4.79 27.348 4.958C26.94 5.09 26.61 5.294 26.358 5.57C26.106 5.834 25.908 6.134 25.764 6.47C25.632 6.794 25.548 7.13 25.512 7.478C25.476 7.826 25.47 8.15 25.494 8.45C25.302 8.438 25.098 8.432 24.882 8.432C24.678 8.432 24.45 8.432 24.198 8.432L24.252 10.628C24.492 10.616 24.714 10.61 24.918 10.61C25.134 10.61 25.338 10.61 25.53 10.61C25.53 10.79 25.524 11.048 25.512 11.384C25.512 11.72 25.506 12.104 25.494 12.536C25.494 12.956 25.494 13.394 25.494 13.85C25.494 14.306 25.494 14.744 25.494 15.164C25.506 15.572 25.512 15.944 25.512 16.28C25.524 16.604 25.542 16.838 25.566 16.982C25.722 17.006 25.89 17.012 26.07 17C26.262 16.988 26.46 16.976 26.664 16.964C26.868 16.94 27.072 16.922 27.276 16.91C27.48 16.898 27.684 16.904 27.888 16.928V14.516V10.592ZM31.6303 8.792C31.5943 8.924 31.5403 9.104 31.4683 9.332C31.3963 9.548 31.3543 9.722 31.3423 9.854C31.3063 10.082 31.2823 10.304 31.2703 10.52C31.2583 10.724 31.2523 10.934 31.2523 11.15C31.2883 11.546 31.2943 11.984 31.2703 12.464C31.2583 12.944 31.2643 13.424 31.2883 13.904C31.3123 14.372 31.3843 14.822 31.5043 15.254C31.6243 15.686 31.8463 16.046 32.1703 16.334C32.5903 16.754 33.1063 17.018 33.7183 17.126C34.0543 17.126 34.4263 17.138 34.8343 17.162C35.2423 17.198 35.6383 17.198 36.0223 17.162C36.4063 17.138 36.7603 17.066 37.0843 16.946C37.4203 16.826 37.6903 16.622 37.8943 16.334C38.0143 16.214 38.1043 15.992 38.1643 15.668C38.2363 15.344 38.2903 14.978 38.3263 14.57C38.3743 14.162 38.4043 13.736 38.4163 13.292C38.4403 12.848 38.4583 12.452 38.4703 12.104C38.4583 11.708 38.4463 11.324 38.4343 10.952C38.4223 10.568 38.3923 10.22 38.3443 9.908C38.2963 9.584 38.2243 9.302 38.1283 9.062C38.0323 8.822 37.9003 8.648 37.7323 8.54C37.4803 8.3 37.1803 8.12 36.8323 8C36.4843 7.868 36.1183 7.79 35.7343 7.766C35.4823 7.742 35.2423 7.742 35.0143 7.766C34.7983 7.778 34.5703 7.772 34.3303 7.748C34.0423 7.748 33.7543 7.766 33.4663 7.802C33.1903 7.838 32.9263 7.904 32.6743 8C32.4343 8.084 32.2183 8.192 32.0263 8.324C31.8463 8.456 31.7143 8.612 31.6303 8.792ZM33.8803 10.916C34.0363 10.724 34.2403 10.592 34.4923 10.52C34.9603 10.412 35.3383 10.454 35.6263 10.646C35.9143 10.838 36.0883 11.144 36.1483 11.564C36.2203 11.912 36.2383 12.284 36.2023 12.68C36.1783 13.064 36.1423 13.448 36.0943 13.832C36.0223 14.132 35.8843 14.33 35.6803 14.426C35.5243 14.51 35.3263 14.57 35.0863 14.606C34.8463 14.63 34.6123 14.618 34.3843 14.57C34.1683 14.51 33.9823 14.408 33.8263 14.264C33.6703 14.108 33.5983 13.892 33.6103 13.616C33.6343 13.196 33.6463 12.8 33.6463 12.428C33.6463 12.044 33.6703 11.66 33.7183 11.276C33.7543 11.084 33.8083 10.964 33.8803 10.916ZM39.5907 3.914C39.4827 5.006 39.4287 6.098 39.4287 7.19C39.4407 8.282 39.4647 9.374 39.5007 10.466C39.5367 11.558 39.5607 12.65 39.5727 13.742C39.5967 14.834 39.5667 15.92 39.4827 17C39.5667 16.976 39.7347 16.97 39.9867 16.982C40.2387 16.994 40.5027 17 40.7787 17C41.0667 17.012 41.3307 17.012 41.5707 17C41.8107 17 41.9607 16.964 42.0207 16.892C41.9967 16.412 41.9787 15.83 41.9667 15.146C41.9547 14.45 41.9487 13.706 41.9487 12.914C41.9487 12.122 41.9487 11.3 41.9487 10.448C41.9607 9.596 41.9727 8.774 41.9847 7.982C41.9967 7.19 42.0087 6.446 42.0207 5.75C42.0327 5.054 42.0387 4.46 42.0387 3.968L39.5907 3.914ZM45.4417 7.946C45.0577 7.958 44.7277 7.958 44.4517 7.946C44.1757 7.934 43.9597 7.922 43.8037 7.91C43.7437 7.91 43.6537 7.904 43.5337 7.892C43.4257 7.88 43.3477 7.88 43.2997 7.892V7.91C43.2277 8.618 43.1917 9.35 43.1917 10.106C43.1917 10.85 43.2037 11.606 43.2277 12.374C43.2517 13.142 43.2637 13.916 43.2637 14.696C43.2757 15.476 43.2517 16.244 43.1917 17C43.2757 16.976 43.4437 16.97 43.6957 16.982C43.9477 16.994 44.2117 17 44.4877 17C44.7757 17.012 45.0397 17.012 45.2797 17C45.5197 17 45.6697 16.964 45.7297 16.892C45.6457 15.44 45.6217 13.958 45.6577 12.446C45.7057 10.934 45.7357 9.452 45.7477 8V7.946H45.4417ZM43.2277 4.022C43.2157 4.574 43.2217 5.042 43.2457 5.426C43.2817 5.798 43.2997 6.158 43.2997 6.506C43.5277 6.494 43.7737 6.5 44.0377 6.524C44.3017 6.536 44.5477 6.548 44.7757 6.56C45.0157 6.56 45.2197 6.548 45.3877 6.524C45.5677 6.5 45.6817 6.452 45.7297 6.38C45.7297 6.2 45.7237 5.996 45.7117 5.768C45.7117 5.528 45.7057 5.3 45.6937 5.084C45.6937 4.856 45.6877 4.652 45.6757 4.472C45.6757 4.28 45.6757 4.148 45.6757 4.076L43.2277 4.022ZM47.1342 8.792C47.0982 8.924 47.0442 9.104 46.9722 9.332C46.9002 9.548 46.8582 9.722 46.8462 9.854C46.8102 10.082 46.7862 10.304 46.7742 10.52C46.7622 10.724 46.7562 10.934 46.7562 11.15C46.7922 11.546 46.7982 11.984 46.7742 12.464C46.7622 12.944 46.7682 13.424 46.7922 13.904C46.8162 14.372 46.8882 14.822 47.0082 15.254C47.1282 15.686 47.3502 16.046 47.6742 16.334C48.0942 16.754 48.6102 17.018 49.2222 17.126C49.5582 17.126 49.9302 17.138 50.3382 17.162C50.7462 17.198 51.1422 17.198 51.5262 17.162C51.9102 17.138 52.2642 17.066 52.5882 16.946C52.9242 16.826 53.1942 16.622 53.3982 16.334C53.5182 16.214 53.6082 15.992 53.6682 15.668C53.7402 15.344 53.7942 14.978 53.8302 14.57C53.8782 14.162 53.9082 13.736 53.9202 13.292C53.9442 12.848 53.9622 12.452 53.9742 12.104C53.9622 11.708 53.9502 11.324 53.9382 10.952C53.9262 10.568 53.8962 10.22 53.8482 9.908C53.8002 9.584 53.7282 9.302 53.6322 9.062C53.5362 8.822 53.4042 8.648 53.2362 8.54C52.9842 8.3 52.6842 8.12 52.3362 8C51.9882 7.868 51.6222 7.79 51.2382 7.766C50.9862 7.742 50.7462 7.742 50.5182 7.766C50.3022 7.778 50.0742 7.772 49.8342 7.748C49.5462 7.748 49.2582 7.766 48.9702 7.802C48.6942 7.838 48.4302 7.904 48.1782 8C47.9382 8.084 47.7222 8.192 47.5302 8.324C47.3502 8.456 47.2182 8.612 47.1342 8.792ZM49.3842 10.916C49.5402 10.724 49.7442 10.592 49.9962 10.52C50.4642 10.412 50.8422 10.454 51.1302 10.646C51.4182 10.838 51.5922 11.144 51.6522 11.564C51.7242 11.912 51.7422 12.284 51.7062 12.68C51.6822 13.064 51.6462 13.448 51.5982 13.832C51.5262 14.132 51.3882 14.33 51.1842 14.426C51.0282 14.51 50.8302 14.57 50.5902 14.606C50.3502 14.63 50.1162 14.618 49.8882 14.57C49.6722 14.51 49.4862 14.408 49.3302 14.264C49.1742 14.108 49.1022 13.892 49.1142 13.616C49.1382 13.196 49.1502 12.8 49.1502 12.428C49.1502 12.044 49.1742 11.66 49.2222 11.276C49.2582 11.084 49.3122 10.964 49.3842 10.916ZM62.2406 10.772C62.2406 10.124 62.1206 9.542 61.8806 9.026C61.6406 8.498 61.2386 8.114 60.6746 7.874C60.3626 7.802 60.0206 7.748 59.6486 7.712C59.2766 7.664 58.9046 7.64 58.5326 7.64C58.1606 7.64 57.8066 7.658 57.4706 7.694C57.1466 7.73 56.8706 7.778 56.6426 7.838C56.0546 7.994 55.5986 8.294 55.2746 8.738C54.9626 9.182 54.7946 9.668 54.7706 10.196C54.7586 10.712 54.9026 11.216 55.2026 11.708C55.5146 12.188 56.0066 12.542 56.6786 12.77C57.0146 12.914 57.3566 13.016 57.7046 13.076C58.0526 13.136 58.3646 13.208 58.6406 13.292C58.9166 13.364 59.1386 13.472 59.3066 13.616C59.4746 13.76 59.5406 13.976 59.5046 14.264C59.5166 14.612 59.4086 14.852 59.1806 14.984C58.9526 15.116 58.7006 15.17 58.4246 15.146C58.1486 15.11 57.8846 15.008 57.6326 14.84C57.3926 14.66 57.2666 14.432 57.2546 14.156C56.8826 14.156 56.4446 14.15 55.9406 14.138C55.4366 14.114 54.9866 14.126 54.5906 14.174V14.21V14.264C54.5906 14.744 54.6866 15.176 54.8786 15.56C55.0826 15.944 55.3586 16.268 55.7066 16.532C56.0666 16.796 56.4926 16.994 56.9846 17.126C57.4766 17.258 58.0286 17.312 58.6406 17.288C59.3366 17.3 59.9786 17.18 60.5666 16.928C61.1546 16.676 61.5866 16.256 61.8626 15.668C62.0906 15.008 62.1746 14.456 62.1146 14.012C62.0546 13.556 61.8926 13.112 61.6286 12.68C61.3526 12.32 60.9206 12.062 60.3326 11.906C59.7446 11.738 59.1146 11.606 58.4426 11.51C58.1666 11.414 57.9566 11.27 57.8126 11.078C57.6686 10.886 57.5966 10.694 57.5966 10.502C57.5966 10.31 57.6626 10.136 57.7946 9.98C57.9386 9.812 58.1486 9.704 58.4246 9.656C58.5806 9.644 58.7366 9.668 58.8926 9.728C59.0606 9.776 59.2046 9.854 59.3246 9.962C59.4566 10.07 59.5526 10.196 59.6126 10.34C59.6846 10.484 59.7026 10.628 59.6666 10.772C60.0746 10.856 60.5066 10.892 60.9626 10.88C61.4306 10.868 61.8566 10.832 62.2406 10.772Z" fill="#FB86E8"/>
</svg>
